#!OML:ASF H:\Pregnant\Project 1\Capture day 1\Session 1\femalepreg.ASF
:FULLY-SPECIFIED
:DEGREES
477
root 11.6231 6.75222 32.1507 -120.103 -0.911297 179.732
lowerback 10.4096 0.509153 -8.70357
upperback 1.08698 -0.463716 -0.2369
thorax -4.6489 -0.120734 4.72808
lowerneck -32.1803 2.65774 -0.598605
upperneck 4.92059 3.50704 -5.51353
head 6.48888 0.691397 -1.34432
rclavicle -2.3059e-014 -2.84262e-014
rhumerus 7.40111 0.919426 -92.3829
rradius 63.2452
rwrist 24.3943
rhand -63.483 360.991
rfingers 7.12502
rthumb -35.4609 334.544
lclavicle -2.3059e-014 -2.84262e-014
lhumerus 21.0083 -20.1512 86.1493
lradius 28.2526
lwrist 5.21619
lhand -47.3669 -250.786
lfingers 7.12502
lthumb -20.06 -80.2293
rfemur -112.212 -40.6776 20.5068
rtibia 141.351
rfoot 34.7355 57.3184
rtoes 35.1571
lfemur -116.734 33.9269 -15.331
ltibia 147.581
lfoot -325.42 -46.9564
ltoes 19.7138
478
root 11.6456 6.72326 32.129 -119.056 -1.27536 179.424
lowerback 9.33359 0.322003 -8.69851
upperback 0.810453 -0.587088 -0.18625
thorax -4.31912 -0.176199 4.78337
lowerneck -32.1999 2.51751 -0.734309
upperneck 5.04263 3.37647 -5.38368
head 6.52346 0.641363 -1.29717
rclavicle -3.97569e-015 -2.68359e-014
rhumerus 8.3193 1.09427 -91.956
rradius 63.8202
rwrist 24.8339
rhand -62.9982 361.557
rfingers 7.12502
rthumb -35.0012 335.002
lclavicle -3.97569e-015 -2.68359e-014
lhumerus 20.7266 -20.3316 86.3494
lradius 28.2637
lwrist 5.09072
lhand -47.3586 -250.592
lfingers 7.12502
lthumb -20.052 -80.4227
rfemur -113.148 -40.7233 20.7187
rtibia 141.319
rfoot 39.649 55.9044
rtoes 38.641
lfemur -118.163 33.4677 -15.1192
ltibia 147.403
lfoot -322.913 -45.7749
ltoes 22.2728
479
root 11.6693 6.68838 32.115 -117.798 -1.64251 179.118
lowerback 8.03467 0.116806 -8.66641
upperback 0.480221 -0.714026 -0.142201
thorax -3.91811 -0.235929 4.8109
lowerneck -32.2162 2.35607 -0.895646
upperneck 5.16277 3.21859 -5.18333
head 6.55427 0.585604 -1.22582
rclavicle 1.19271e-015 1.11319e-014
rhumerus 9.2864 1.18027 -91.502
rradius 64.2819
rwrist 25.1377
rhand -62.3655 361.963
rfingers 7.12502
rthumb -34.4008 335.269
lclavicle 1.19271e-015 1.11319e-014
lhumerus 20.4617 -20.553 86.5182
lradius 28.2805
lwrist 4.99398
lhand -47.3498 -250.408
lfingers 7.12502
lthumb -20.0436 -80.6058
rfemur -114.867 -41.0604 21.4713
rtibia 141.43
rfoot 44.2604 54.186
rtoes 41.5833
lfemur -120.071 33.1367 -15.0464
ltibia 147.276
lfoot -320.251 -44.3118
ltoes 24.9864
480
root 11.6941 6.65286 32.1049 -116.482 -2.02711 178.836
lowerback 6.69078 -0.0834398 -8.5809
upperback 0.133515 -0.833729 -0.104725
thorax -3.50845 -0.295207 4.79657
lowerneck -32.2299 2.18163 -1.06655
upperneck 5.27842 3.0392 -4.92445
head 6.58165 0.52608 -1.136
rclavicle -1.63003e-014 9.24349e-015
rhumerus 10.2939 1.17889 -91.0422
rradius 64.6412
rwrist 25.2723
rhand -61.6043 362.305
rfingers 7.12502
rthumb -33.6778 335.45
lclavicle -1.63003e-014 9.24349e-015
lhumerus 20.2121 -20.8108 86.6476
lradius 28.306
lwrist 4.91521
lhand -47.3417 -250.221
lfingers 7.12502
lthumb -20.0357 -80.7922
rfemur -117.031 -41.6335 22.6426
rtibia 141.634
rfoot 47.6006 52.8961
rtoes 43.1505
lfemur -122.137 32.9121 -14.9862
ltibia 147.149
lfoot -317.642 -42.6552
ltoes 27.6822
481
root 11.7201 6.63315 32.0841 -115.602 -2.44956 178.597
lowerback 5.87547 -0.215372 -8.4402
upperback -0.108122 -0.918461 -0.0709001
thorax -3.29091 -0.336962 4.74912
lowerneck -32.2549 1.99826 -1.23108
upperneck 5.38888 2.83854 -4.62209
head 6.60823 0.461085 -1.03531
rclavicle 2.26615e-014 1.799e-014
rhumerus 11.3486 1.07969 -90.596
rradius 64.8925
rwrist 25.241
rhand -60.7389 362.539
rfingers 7.12502
rthumb -32.855 335.508
lclavicle 2.26615e-014 1.799e-014
lhumerus 19.9851 -21.1104 86.7269
lradius 28.3459
lwrist 4.84997
lhand -47.3295 -250.041
lfingers 7.12502
lthumb -20.0241 -80.9704
rfemur -118.405 -42.2715 23.6216
rtibia 141.723
rfoot 49.981 51.9819
rtoes 44.067
lfemur -123.26 32.6152 -14.5302
ltibia 146.863
lfoot -315.596 -41.192
ltoes 29.9576
482
root 11.7474 6.63369 32.0485 -115.277 -2.91233 178.398
lowerback 5.72079 -0.273221 -8.24843
upperback -0.207507 -0.966944 -0.0419401
thorax -3.30262 -0.358757 4.67372
lowerneck -32.3017 1.81565 -1.37606
upperneck 5.49031 2.6261 -4.29911
head 6.63531 0.392491 -0.932323
rclavicle 1.49089e-014 2.99171e-014
rhumerus 12.4612 0.891501 -90.1748
rradius 65.0391
rwrist 25.0508
rhand -59.8265 362.571
rfingers 7.12502
rthumb -31.9867 335.362
lclavicle 1.49089e-014 2.99171e-014
lhumerus 19.7888 -21.434 86.7561
lradius 28.4034
lwrist 4.78446
lhand -47.3204 -249.862
lfingers 7.12502
lthumb -20.0153 -81.1491
rfemur -118.53 -42.8213 24.0605
rtibia 141.621
rfoot 51.6401 51.315
rtoes 44.7295
lfemur -123.185 32.1523 -13.6038
ltibia 146.394
lfoot -314.217 -40.0865
ltoes 31.7083
483
root 11.7755 6.65 32.001 -115.398 -3.3988 178.25
lowerback 6.08874 -0.273309 -8.01696
upperback -0.185811 -0.982996 -0.0154112
thorax -3.48758 -0.363147 4.57869
lowerneck -32.3595 1.64532 -1.49433
upperneck 5.56578 2.41493 -3.97603
head 6.65652 0.324533 -0.833309
rclavicle 6.16232e-015 1.18277e-014
rhumerus 13.6434 0.641414 -89.7793
rradius 65.0689
rwrist 24.7219
rhand -58.9121 362.36
rfingers 7.12502
rthumb -31.1156 334.981
lclavicle 6.16232e-015 1.18277e-014
lhumerus 19.6237 -21.7501 86.7423
lradius 28.4764
lwrist 4.70223
lhand -47.3111 -249.676
lfingers 7.12502
lthumb -20.0063 -81.3337
rfemur -117.526 -43.1123 23.9026
rtibia 141.336
rfoot 52.7244 50.789
rtoes 45.2631
lfemur -122.192 31.5914 -12.3459
ltibia 145.801
lfoot -313.33 -39.3432
ltoes 33.0167
484
root 11.8036 6.68379 31.9386 -116.048 -3.89635 178.168
lowerback 7.06766 -0.207212 -7.76034
upperback -0.0229663 -0.96065 0.017135
thorax -3.87455 -0.347263 4.48192
lowerneck -32.4153 1.49283 -1.59006
upperneck 5.60178 2.21466 -3.66913
head 6.66587 0.259924 -0.74182
rclavicle -4.77083e-015 -6.85807e-015
rhumerus 14.9019 0.342623 -89.4047
rradius 64.9706
rwrist 24.3217
rhand -58.0194 361.902
rfingers 7.12502
rthumb -30.2644 334.363
lclavicle -4.77083e-015 -6.85807e-015
lhumerus 19.4828 -22.0318 86.7051
lradius 28.5639
lwrist 4.59013
lhand -47.2984 -249.496
lfingers 7.12502
lthumb -19.9942 -81.5127
rfemur -115.063 -42.9805 22.9326
rtibia 140.78
rfoot 53.506 50.147
rtoes 46.0418
lfemur -120.116 30.856 -10.7319
ltibia 145.06
lfoot -312.915 -39.0253
ltoes 34.072
485
root 11.8302 6.72608 31.8686 -116.978 -4.38441 178.161
lowerback 8.3614 -0.105034 -7.47285
upperback 0.222857 -0.911466 0.0533062
thorax -4.3547 -0.320429 4.37309
lowerneck -32.4696 1.37609 -1.63559
upperneck 5.59783 2.04274 -3.4118
head 6.66412 0.20396 -0.671106
rclavicle -1.63003e-014 4.96962e-015
rhumerus 16.2385 0.0172773 -89.054
rradius 64.7324
rwrist 23.8872
rhand -57.1863 361.265
rfingers 7.12502
rthumb -29.4693 333.583
lclavicle -1.63003e-014 4.96962e-015
lhumerus 19.3648 -22.2599 86.6472
lradius 28.6768
lwrist 4.45866
lhand -47.2998 -249.316
lfingers 7.12502
lthumb -19.9955 -81.6925
rfemur -111.766 -42.3047 21.4686
rtibia 140.022
rfoot 54.1258 49.2178
rtoes 47.0407
lfemur -117.535 30.0593 -9.01614
ltibia 144.267
lfoot -312.769 -39.0108
ltoes 34.9252
486
root 11.8541 6.76515 31.8018 -117.823 -4.83944 178.247
lowerback 9.53816 -0.00485958 -7.15051
upperback 0.458946 -0.845753 0.0974845
thorax -4.77967 -0.289703 4.24789
lowerneck -32.5088 1.30379 -1.63093
upperneck 5.55718 1.91334 -3.21549
head 6.65047 0.162621 -0.623017
rclavicle 1.27222e-014 1.3418e-014
rhumerus 17.6395 -0.314951 -88.7255
rradius 64.3549
rwrist 23.468
rhand -56.4189 360.421
rfingers 7.12502
rthumb -28.7365 332.612
lclavicle 1.27222e-014 1.3418e-014
lhumerus 19.2594 -22.4123 86.583
lradius 28.8051
lwrist 4.3072
lhand -47.3103 -249.131
lfingers 7.12502
lthumb -20.0056 -81.8788
rfemur -108.636 -41.1113 20.0703
rtibia 139.21
rfoot 54.7101 47.9067
rtoes 48.1745
lfemur -115.233 29.4684 -7.49267
ltibia 143.547
lfoot -312.55 -39.0703
ltoes 35.76
